<?xml version="1.0" encoding="UTF-8"?>
<svg xmlns="http://www.w3.org/2000/svg" xmlns:xlink="http://www.w3.org/1999/xlink" width="256px" height="256px"
    viewBox="0 0 256 256" version="1.1">

    <defs>
        <radialGradient id="backgroundGradient" cx="0%" cy="0%" r="141.42%">
            <stop offset="0%" style="stop-color:#6A75AF;stop-opacity:1" />
            <stop offset="100%" style="stop-color:#2B2F40;stop-opacity:1" />
        </radialGradient>
    </defs>


    <rect width="256" height="256" fill="url(#backgroundGradient)" />

    <g id="surface1">
        <path style=" stroke:none;fill-rule:nonzero;fill:rgb(89.019608%,89.019608%,89.019608%);fill-opacity:1;"
            d="M 163.734375 77.867188 L 135.464844 49.601562 L 163.734375 21.332031 L 192 49.601562 Z M 217.066406 109.867188 L 199.464844 92.265625 L 217.066406 74.667969 L 234.667969 92.265625 Z M 128.800781 234.667969 C 113.867188 234.667969 99.867188 231.820312 86.800781 226.132812 C 73.734375 220.445312 62.355469 212.753906 52.667969 203.066406 C 42.976562 193.378906 35.289062 182 29.601562 168.933594 C 23.910156 155.867188 21.066406 141.867188 21.066406 126.933594 C 21.066406 100.976562 29.332031 78.089844 45.867188 58.265625 C 62.398438 38.445312 83.464844 26.132812 109.066406 21.332031 C 105.867188 38.753906 106.84375 55.878906 112 72.703125 C 117.15625 89.527344 126.042969 104.257812 138.667969 116.898438 C 151.289062 129.539062 166 138.441406 182.800781 143.601562 C 199.601562 148.765625 216.800781 149.746094 234.398438 146.542969 C 229.777344 172.175781 217.511719 193.273438 197.601562 209.832031 C 177.6875 226.386719 154.753906 234.667969 128.800781 234.667969 Z M 128.800781 218.667969 C 146.578125 218.667969 162.753906 213.601562 177.332031 203.464844 C 191.910156 193.332031 203.644531 180.445312 212.535156 164.800781 C 196.535156 163.378906 181.15625 159.6875 166.398438 153.734375 C 151.644531 147.777344 138.621094 139.199219 127.332031 128 C 116.042969 116.800781 107.464844 103.867188 101.601562 89.199219 C 95.734375 74.535156 92.089844 59.289062 90.667969 43.464844 C 75.023438 52 62.179688 63.601562 52.132812 78.265625 C 42.089844 92.933594 37.066406 109.15625 37.066406 126.933594 C 37.066406 152.414062 45.984375 174.074219 63.820312 191.910156 C 81.660156 209.75 103.320312 218.667969 128.800781 218.667969 Z M 127.199219 128 Z M 127.199219 128 " />
    </g>
</svg>